<svg xmlns="http://www.w3.org/2000/svg" width="206" height="241.439" viewBox="0 0 206 241.439"><g transform="translate(1810.417 1046.191)"><path d="M-1673.97-932.751c3.377-2.745,6.674-5.432,9.978-8.109q9.085-7.358,18.178-14.707a8.62,8.62,0,0,1,4.016-2.033c6.053-1.139,11.158,1.279,13.863,6.806,4.078,8.333,8.274,16.61,12.371,24.934,2.223,4.516,4.46,9.031,6.482,13.638a11.391,11.391,0,0,1-4.526,14.413,11.608,11.608,0,0,1-16.681-5.012q-4.433-9.477-8.818-18.976c-.844-1.822-1.645-3.664-2.487-5.487-.438-.949-.951-1.2-1.919-.433q-11.54,9.159-23.145,18.237c-.043.034-.1.053-.144.085-3.3,2.4-2.938,2.316.5,3.846q7.862,3.5,15.739,6.972,11.716,5.176,23.439,10.339c7.2,3.16,14.386,6.343,21.616,9.426,8.82,3.761,10.534,14.608,3.039,20.581-3.574,2.848-7.829,2.977-11.93,1.126q-10.135-4.572-20.292-9.089c-6.273-2.782-12.481-5.72-18.767-8.479-4.55-2-9.043-4.118-13.647-6-4.28-1.751-8.448-3.784-12.619-5.789-2.706-1.3-5.716-1.513-8.478-2.632-8.847-3.584-16.252-8.735-20.723-17.55q-6.148-12.118-11.716-24.5c-1.49-3.3-2.909-6.642-4.392-9.95-.215-.48-.3-1.271-.948-1.253-.684.019-.645.813-.8,1.314-3.437,11.467-6.792,22.959-10.313,34.4-2.157,7.009-4.341,14.008-6.359,21.06a11.5,11.5,0,0,1-16.94,6.8c-4.828-2.616-7.346-7.857-5.047-14.728q7.593-22.692,15.274-45.354,3.649-10.823,7.316-21.639c.589-1.726,1.89-2.988,3.013-4.376,1.824-2.255,4.528-3.149,6.855-4.6,10.1-6.305,20.261-12.508,30.411-18.732,3.808-2.335,7.644-4.624,11.47-6.929a3.755,3.755,0,0,0,1.56-1.47c6.275-12.2,12.6-24.372,18.817-36.6,1.056-2.078,1.927-4.263,3.019-6.332,1.731-3.279,4.382-5.848,7.964-6.447,7.32-1.223,13.278,3.115,14.139,10.2a10.8,10.8,0,0,1-1.217,6.5q-13.026,24.592-26.006,49.21a5.468,5.468,0,0,1-2.029,2.172c-3.1,1.918-6.153,3.907-9.256,5.815a1.468,1.468,0,0,0-.8,2.009c3.665,12.058,7.494,24.07,10.512,36.316A7.479,7.479,0,0,0-1673.97-932.751Z" transform="translate(-29.272)" fill="#070707"/><path d="M-1710.256-460.935c14.807.013,28.8.518,42.771,1.771a259.026,259.026,0,0,1,38.062,5.947,75.18,75.18,0,0,1,17.817,6.366c2.432,1.3,4.757,2.773,6.253,5.188,1.428,2.306,1.192,4.37-.5,6.5-2.769,3.493-6.665,5.211-10.626,6.806a118,118,0,0,1-20.437,5.942c-6.68,1.369-13.456,2.348-20.247,3.153-8.625,1.023-17.272,1.807-25.94,2.223-13.438.645-26.891.835-40.341.287-6.216-.253-12.437-.494-18.638-.965-7.251-.551-14.488-1.278-21.7-2.294a192.39,192.39,0,0,1-23.871-4.668c-6.936-1.894-13.887-3.9-19.7-8.567-3.2-2.568-3.629-5.762-2.526-7.949a13,13,0,0,1,5.047-4.825c5.2-3.278,11.057-4.8,16.887-6.451,15.171-4.292,30.752-5.9,46.378-7.217C-1730.883-460.58-1720.177-460.83-1710.256-460.935Z" transform="translate(0 -388.326)" fill="#070707"/><path d="M-1685.65-931.266a18.342,18.342,0,0,1-18.553-18.472,18.378,18.378,0,0,1,18.469-18.381,18.451,18.451,0,0,1,18.462,18.446C-1667.2-939.711-1675.575-930.984-1685.65-931.266Z" transform="translate(-70.474 -51.802)" fill="#070707"/></g></svg>