<svg xmlns="http://www.w3.org/2000/svg" width="185.886" height="159.511" viewBox="0 0 185.886 159.511"><g transform="translate(911.951 1525.331)"><g transform="translate(-789.152 535.146)"><path d="M278.046-1544.857H259.387v.856H250.83c5.515,14.936,0,23.655,0,23.655h18.659v-.856h8.557S272.531-1529.92,278.046-1544.857Z" transform="translate(-291.832 -402.738)"/><path d="M48.9-2060.477h-157.5a14.191,14.191,0,0,0-14.191,14.191v91.411a14.191,14.191,0,0,0,14.191,14.191H48.9a14.191,14.191,0,0,0,14.191-14.191v-91.411A14.191,14.191,0,0,0,48.9-2060.477Zm5,99.354a9.211,9.211,0,0,1-9.211,9.211H-103.155a9.211,9.211,0,0,1-9.211-9.211v-80.245a9.212,9.212,0,0,1,9.211-9.212h62.044l-9.747,19.422H-31.84l-12.172,23.144h11.189l-8.715,31.386,33.922-48.285-8.983-.177,8.983-17.457H-25.734l3.893-8.034H44.681a9.212,9.212,0,0,1,9.211,9.212Z" transform="translate(0)"/><path d="M55.757-1477H-115.469a7.33,7.33,0,0,0-7.33,7.33v17.112a7.33,7.33,0,0,0,7.33,7.33H55.757a7.33,7.33,0,0,0,7.33-7.33v-17.112A7.33,7.33,0,0,0,55.757-1477ZM-99.8-1459.687a2.744,2.744,0,0,1-2.744-2.744,2.744,2.744,0,0,1,2.744-2.744,2.744,2.744,0,0,1,2.744,2.744A2.744,2.744,0,0,1-99.8-1459.687Zm34.473-.234h-24.52a2.635,2.635,0,0,1-2.627-2.627,2.635,2.635,0,0,1,2.627-2.627h24.52a2.635,2.635,0,0,1,2.627,2.627A2.635,2.635,0,0,1-65.322-1459.921Z" transform="translate(0 -455.742)"/></g></g></svg>